inDegrees=yes
name=ik_S48_A01_T01
DataType=double
version=3
OpenSimVersion=4.3-2021-08-27-4bc7ad9
endheader
time	pelvis_tilt	pelvis_list	pelvis_rotation	pelvis_tx	pelvis_ty	pelvis_tz	hip_flexion_r	hip_adduction_r	hip_rotation_r	knee_angle_r	knee_angle_r_beta	ankle_angle_r	subtalar_angle_r	mtp_angle_r	hip_flexion_l	hip_adduction_l	hip_rotation_l	knee_angle_l	knee_angle_l_beta	ankle_angle_l	subtalar_angle_l	mtp_angle_l	lumbar_extension	lumbar_bending	lumbar_rotation	arm_flex_r	arm_add_r	arm_rot_r	elbow_flex_r	pro_sup_r	wrist_flex_r	wrist_dev_r	arm_flex_l	arm_add_l	arm_rot_l	elbow_flex_l	pro_sup_l	wrist_flex_l	wrist_dev_l
12.07999999999983	1.903080102435724	-2.664617179130341	102.9236566664087	0	0.9399999999999999	0	6.64807107692326	0.8832947997874383	-9.873271140140377	-8.431052936974137	-0.1471496331601367	0	0	0	-3.223958106969087	-5.248084241865391	-9.354026579522179	25.13971440661627	0.4387707894065064	0	0	0	0	0	0	28.12662274405557	-28.12662274405557	4.091289964463279	72.2824781856086	85.90871026621944	0	0	28.12662274405557	-28.12662274405557	4.091289964463279	72.2824781856086	85.90871026605025	0	0
12.09999999999983	2.311983062022462	-2.626428449157033	103.3183721738239	0	0.9399999999999999	0	5.21770552546781	1.511677911864414	-10.08471034190637	-8.892229661318952	-0.155198685433516	0	0	0	-2.093315126442467	-5.913154404837174	-9.29046269678734	26.37189346425325	0.4602763709363928	0	0	0	0	0	0	28.13144398117074	-28.13144398117075	4.091803343486171	72.28979111520599	85.90819688722368	0	0	28.13144398117074	-28.13144398117075	4.091803343486171	72.28979111520599	85.90819688705453	0	0
12.11999999999983	2.606105654943625	-2.497396113259812	103.5439877121469	0	0.9399999999999999	0	4.63922582291701	1.831027784029851	-9.588965200892492	-9.346791208286717	-0.1631322810810623	0	0	0	-0.985885123394417	-6.444672079562489	-9.503819358958927	27.653461375325	0.4826439505725007	0	0	0	0	0	0	28.13791024330108	-28.13791024330109	4.092493899695857	72.29962923816267	85.90750633105053	0	0	28.13791024330108	-28.13791024330109	4.092493899695857	72.29962923816267	85.90750633088146	0	0
12.13999999999983	2.698159009346439	-2.308835020776717	103.5892827029267	0	0.9399999999999999	0	3.834029455903323	1.906450581864065	-8.897469449794068	-8.921033926296689	-0.1557014146959944	0	0	0	0.06866649033597864	-6.777815309619401	-9.841618897635668	27.70206378141634	0.4834922225831859	0	0	0	0	0	0	28.17327449572977	-28.17327449572977	4.095741846605621	72.34549694435181	85.90425838430846	0	0	28.17327449572977	-28.17327449572977	4.095741846605621	72.34549694435181	85.90425838414002	0	0
12.15999999999983	2.575969858847452	-2.270735758689192	103.3726255033511	0	0.9399999999999999	0	3.302115884790705	1.825069425574373	-7.838442686630321	-9.334111089444354	-0.1629109712577189	0	0	0	1.369276088108031	-6.786705210210681	-9.864539224266972	28.3402017132606	0.4946298305757355	0	0	0	0	0	0	28.19180900552604	-28.19180900552604	4.097528917469186	72.37079994899331	85.90247131353777	0	0	28.19180900552604	-28.19180900552604	4.097528917469186	72.37079994899331	85.90247131336967	0	0
12.17999999999983	2.309069930086965	-2.415743537196577	103.0781990389267	0	0.9399999999999999	0	2.933630856050756	1.63857397355844	-6.432814338565665	-8.886248644535172	-0.155094296998022	0	0	0	2.963815273575289	-6.601492230615651	-9.7891712982754	28.12260226460002	0.4908320037460839	0	0	0	0	0	0	28.25083020879333	-28.25083020879333	4.10298745329801	72.44790943117447	85.89701277799098	0	0	28.25083020879333	-28.25083020879333	4.10298745329801	72.44790943117447	85.89701277782395	0	0
12.19999999999983	2.013731601390594	-2.622382169273254	102.856618704669	0	0.9399999999999999	0	2.813577048586925	1.50764403020341	-4.602033488989395	-8.761091194875197	-0.1529098874180564	0	0	0	4.682478284293349	-6.288799605078628	-9.531669034554136	27.37511342883255	0.4777858624400425	0	0	0	0	0	0	28.28915532273579	-28.2891553227358	4.10652634534393	72.49789693917849	85.89347388612791	0	0	28.28915532273579	-28.2891553227358	4.10652634534393	72.49789693917849	85.89347388596151	0	0
12.21999999999983	1.583596081153011	-2.784813049770101	102.8025980404298	0	0.9399999999999999	0	2.804442680899929	1.261473980048136	-2.938316415275444	-8.348068005226068	-0.1457012728715901	0	0	0	6.296657468613213	-5.631249420358732	-8.759180430750463	25.7106483803821	0.4487354670602152	0	0	0	0	0	0	28.34197339888019	-28.34197339888019	4.111423059805448	72.56707921849249	85.88857717191952	0	0	28.34197339888019	-28.34197339888019	4.111423059805448	72.56707921849249	85.88857717175408	0	0
